# xmcd
#
# Track frame offsets:
#	150
#	19387
#	38679
#	62783
#	83973
#	98720
#	117259
#	141651
#	161951
#	178362
#
# Disc length: 2633 seconds
#
# Revision: 0
# Processed by: cddbd v1.4PL0 Copyright (c) Steve Scherf et al.
# Submitted via: EasyCDDAExtractor 5.0.0.0
#
DISCID=920a470a
DTITLE=Varios - Lost without you
DYEAR=1994
DGENRE=Soul
TTITLE0=Lost without you (Be Be and Ce Ce)
TTITLE1=Here with you (Margaret Bell)
TTITLE2=Stay with me (Vickie Winans)
TTITLE3=Flesh of my flesh (Leon Palillo)
TTITLE4=Let's stay together (Al Green)
TTITLE5=For Always (BeBe and CeCE)
TTITLE6=Real Love (Kirk Franklin and the family)
TTITLE7=Through the years (Norman Hulchins)
TTITLE8=The lord's Ptayer instrumental (Richard Smallwood)
TTITLE9=Here with you (Margaret Bell)
EXTD=
EXTT0=
EXTT1=
EXTT2=
EXTT3=
EXTT4=
EXTT5=
EXTT6=
EXTT7=
EXTT8=
EXTT9=
PLAYORDER=
